# xmcd
# Track frame offsets:
# 150
# 9927
# 20130
# 29890
# 41882
# 54680
# 68667
# 78545
# 88007
# 101140
# 113360
# 122635
# 133005
# 144757
#
# Disc length: 2075 seconds
# Revision: 0
# Processed by: cddbd v1.4PL0 Copyright (c) Steve Scherf et al.
# Submitted via: VisiTrax 2.9.5.180 - For more info visit www.synapsa.com
#
DISCID=bd08190e
DTITLE=Hank Locklin - Country Gold
DYEAR=1995
DGENRE=
TTITLE0=Please Help Me I´m Falling
TTITLE1=Let me be The One
TTITLE2=Happy Journey
TTITLE3=It´s A Little More Like Heaven
TTITLE4=Daytime Love Affair
TTITLE5=Everywhere We Go
TTITLE6=We´re Gonna Go Fishin´
TTITLE7=Geisha Girl
TTITLE8=Happy Birthday To Me
TTITLE9=From Here To There To You
TTITLE10=Flying South
TTITLE11=Night Life Queen
TTITLE12=There Never Was A Time
TTITLE13=Send Me The Pillow That You Dream On
EXTD=
EXTT0=
EXTT1=
EXTT2=
EXTT3=
EXTT4=
EXTT5=
EXTT6=
EXTT7=
EXTT8=
EXTT9=
EXTT10=
EXTT11=
EXTT12=
EXTT13=
PLAYORDER=
